<svg width="33" height="33" viewBox="0 0 33 33" fill="none" xmlns="http://www.w3.org/2000/svg">
<path d="M24.6 24.6C26.8091 24.6 28.6 22.8091 28.6 20.6C28.6 18.3908 26.8091 16.6 24.6 16.6C22.3908 16.6 20.6 18.3908 20.6 20.6C20.6 22.8091 22.3908 24.6 24.6 24.6Z" stroke="#3B82F6" stroke-width="2" stroke-linecap="round" stroke-linejoin="round"/>
<path d="M12.6 15.2666C15.5455 15.2666 17.9333 12.8788 17.9333 9.93331C17.9333 6.98779 15.5455 4.59998 12.6 4.59998C9.65448 4.59998 7.26666 6.98779 7.26666 9.93331C7.26666 12.8788 9.65448 15.2666 12.6 15.2666Z" stroke="#3B82F6" stroke-width="2" stroke-linecap="round" stroke-linejoin="round"/>
<path d="M13.9333 20.6H8.6C7.18551 20.6 5.82895 21.1619 4.82876 22.1621C3.82857 23.1623 3.26666 24.5188 3.26666 25.9333V28.6" stroke="#3B82F6" stroke-width="2" stroke-linecap="round" stroke-linejoin="round"/>
<path d="M29.5333 22.4666L28.3333 22.0667" stroke="#3B82F6" stroke-width="2" stroke-linecap="round" stroke-linejoin="round"/>
<path d="M20.8666 19.1333L19.6666 18.7333" stroke="#3B82F6" stroke-width="2" stroke-linecap="round" stroke-linejoin="round"/>
<path d="M22.7333 25.5333L23.1333 24.3333" stroke="#3B82F6" stroke-width="2" stroke-linecap="round" stroke-linejoin="round"/>
<path d="M26.0667 16.8666L26.4666 15.6666" stroke="#3B82F6" stroke-width="2" stroke-linecap="round" stroke-linejoin="round"/>
<path d="M26.7333 25.5333L26.2 24.2" stroke="#3B82F6" stroke-width="2" stroke-linecap="round" stroke-linejoin="round"/>
<path d="M22.9999 17L22.4666 15.6666" stroke="#3B82F6" stroke-width="2" stroke-linecap="round" stroke-linejoin="round"/>
<path d="M19.6666 22.7333L21 22.2" stroke="#3B82F6" stroke-width="2" stroke-linecap="round" stroke-linejoin="round"/>
<path d="M28.2 18.9999L29.5333 18.4666" stroke="#3B82F6" stroke-width="2" stroke-linecap="round" stroke-linejoin="round"/>
</svg>
