<svg width="33" height="33" viewBox="0 0 33 33" fill="none" xmlns="http://www.w3.org/2000/svg">
<path d="M21.9333 28.7999V26.1333C21.9333 24.7188 21.3714 23.3622 20.3712 22.362C19.371 21.3618 18.0145 20.7999 16.6 20.7999H8.6C7.18551 20.7999 5.82895 21.3618 4.82876 22.362C3.82857 23.3622 3.26666 24.7188 3.26666 26.1333V28.7999" stroke="#22C55E" stroke-width="2" stroke-linecap="round" stroke-linejoin="round"/>
<path d="M12.6 15.4666C15.5455 15.4666 17.9333 13.0788 17.9333 10.1333C17.9333 7.18774 15.5455 4.79993 12.6 4.79993C9.65448 4.79993 7.26666 7.18774 7.26666 10.1333C7.26666 13.0788 9.65448 15.4666 12.6 15.4666Z" stroke="#22C55E" stroke-width="2" stroke-linecap="round" stroke-linejoin="round"/>
<path d="M29.9333 28.7999V26.1333C29.9324 24.9516 29.5391 23.8036 28.8151 22.8697C28.0911 21.9357 27.0775 21.2687 25.9333 20.9733" stroke="#22C55E" stroke-width="2" stroke-linecap="round" stroke-linejoin="round"/>
<path d="M21.9333 4.97327C23.0805 5.267 24.0973 5.9342 24.8235 6.86968C25.5496 7.80516 25.9437 8.95571 25.9437 10.1399C25.9437 11.3242 25.5496 12.4747 24.8235 13.4102C24.0973 14.3457 23.0805 15.0129 21.9333 15.3066" stroke="#22C55E" stroke-width="2" stroke-linecap="round" stroke-linejoin="round"/>
</svg>
