<svg width="65" height="64" viewBox="0 0 65 64" fill="none" xmlns="http://www.w3.org/2000/svg">
<path d="M0.200012 32C0.200012 14.3269 14.5269 0 32.2 0C49.8731 0 64.2 14.3269 64.2 32C64.2 49.6731 49.8731 64 32.2 64C14.5269 64 0.200012 49.6731 0.200012 32Z" fill="#EFF6FF"/>
<path d="M41.5334 34.6667C43.52 32.72 45.5334 30.3867 45.5334 27.3333C45.5334 25.3884 44.7608 23.5232 43.3855 22.1479C42.0102 20.7726 40.145 20 38.2 20C35.8534 20 34.2 20.6667 32.2 22.6667C30.2 20.6667 28.5467 20 26.2 20C24.2551 20 22.3898 20.7726 21.0146 22.1479C19.6393 23.5232 18.8667 25.3884 18.8667 27.3333C18.8667 30.4 20.8667 32.7333 22.8667 34.6667L32.2 44L41.5334 34.6667Z" stroke="#3B82F6" stroke-width="2" stroke-linecap="round" stroke-linejoin="round"/>
</svg>
